# xmcd
#
# Track frame offsets:
# 150
# 10467
# 32705
# 44234
# 56885
# 70622
# 82116
# 96428
# 109327
# 123259
# 138175
# 155442
#
# Disc length: 2208 seconds
#
#
# Revision: 0
# Processed by: cddbd v1.5.2PL0 Copyright (c) Steve Scherf et al.
# Submitted via: FreeRIP 2.951 
#
DISCID=ab089e0c
DTITLE=The Anderson Family - Shadow of a Man
DYEAR=2001
DGENRE=Bluegrass
TTITLE0=Deep Wide and Blue
TTITLE1=Shadow of a Man
TTITLE2=Sad And Brokenhearted
TTITLE3=God's Great Hand
TTITLE4=Little Mary
TTITLE5=Gone To Stay
TTITLE6=November Rain
TTITLE7=Feeling Called the Blues
TTITLE8=That Old Train
TTITLE9=The One I Left Behind
TTITLE10=Letter to Dad
TTITLE11=Will You be Ready
EXTD=
EXTT0=
EXTT1=
EXTT2=
EXTT3=
EXTT4=
EXTT5=
EXTT6=
EXTT7=
EXTT8=
EXTT9=
EXTT10=
EXTT11=
PLAYORDER=
